<svg width="132" height="42" viewBox="0 0 132 42" fill="none" xmlns="http://www.w3.org/2000/svg">
<g opacity="0.7">
<path d="M53.7043 31.8982C52.7381 31.9134 51.7816 31.7024 50.9113 31.2822C50.0491 30.8665 49.2805 30.2796 48.6523 29.5572C47.9984 28.8052 47.4837 27.9428 47.1323 27.0102C46.4064 24.9194 46.4209 22.6427 47.1733 20.5613C47.5289 19.597 48.0579 18.706 48.7343 17.9322C49.3824 17.1862 50.18 16.5845 51.0753 16.1663C51.9909 15.75 52.9866 15.5398 53.9923 15.5503C54.9509 15.5286 55.8989 15.7549 56.7443 16.2073C57.5601 16.6256 58.2537 17.2482 58.7573 18.0142L58.8803 16.0012H62.6593V31.4493H58.8393L58.7163 29.1903C58.1799 30.0306 57.4383 30.7205 56.5614 31.1948C55.6845 31.6691 54.7012 31.9123 53.7043 31.9013V31.8982ZM54.6493 28.1982C55.3487 28.2033 56.0343 28.0034 56.6213 27.6233C57.221 27.2228 57.704 26.6707 58.0213 26.0232C58.3462 25.3 58.5141 24.5161 58.5141 23.7232C58.5141 22.9304 58.3462 22.1465 58.0213 21.4233C57.6927 20.7834 57.212 20.2339 56.6213 19.8232C56.0427 19.4251 55.3513 19.2235 54.6493 19.2483C53.95 19.2432 53.2644 19.4431 52.6773 19.8232C52.0777 20.2237 51.5947 20.7758 51.2773 21.4233C50.9526 22.1465 50.7847 22.9304 50.7847 23.7232C50.7847 24.5161 50.9526 25.3 51.2773 26.0232C51.6062 26.663 52.0869 27.2124 52.6773 27.6233C53.2641 28.0044 53.9497 28.2054 54.6493 28.2013V28.1982Z" fill="#35608B"/>
<path d="M68.9863 11.7693C69.0034 12.1854 68.9037 12.598 68.6983 12.9603C68.4853 13.3032 68.1882 13.5862 67.8353 13.7823C67.4712 13.983 67.0599 14.0824 66.6443 14.0703C66.2292 14.0776 65.8192 13.9784 65.4533 13.7823C65.1004 13.5862 64.8034 13.3033 64.5903 12.9603C64.4013 12.5916 64.3027 12.1832 64.3027 11.7688C64.3027 11.3544 64.4013 10.946 64.5903 10.5773C64.8034 10.2343 65.1004 9.95138 65.4533 9.75529C65.8175 9.55462 66.2287 9.45517 66.6443 9.4673C67.0594 9.46003 67.4694 9.55917 67.8353 9.75529C68.1882 9.95145 68.4852 10.2344 68.6983 10.5773C68.8991 10.9418 68.9986 11.3534 68.9863 11.7693ZM64.5863 31.4463V16.0003H68.7033V31.4463H64.5863Z" fill="#35608B"/>
<path d="M79.6703 15.9182C79.5883 15.8772 79.4654 15.8772 79.3824 15.8362C79.1108 15.7886 78.836 15.7612 78.5604 15.7542C77.7309 15.7263 76.9131 15.9558 76.2194 16.4112C75.5319 16.8926 74.9807 17.5437 74.6194 18.3012L74.4554 15.9602H70.6703V31.4062H74.7784V23.8062C74.7031 22.743 75.0237 21.6894 75.6784 20.8482C76.007 20.4964 76.4096 20.2218 76.8571 20.0442C77.3046 19.8667 77.7859 19.7905 78.2664 19.8212C78.5004 19.8143 78.7347 19.828 78.9664 19.8622C79.1898 19.8975 79.4096 19.9524 79.6234 20.0262V15.9182H79.6703Z" fill="#35608B"/>
<path d="M81.3094 31.4463V9.59229H85.4174V17.9313C85.9613 17.1963 86.6632 16.5928 87.4714 16.1653C88.3238 15.7317 89.267 15.5066 90.2234 15.5083C91.1897 15.4931 92.1461 15.7041 93.0164 16.1243C93.8786 16.54 94.6472 17.1269 95.2754 17.8493C95.9293 18.6013 96.444 19.4638 96.7954 20.3963C97.5212 22.4871 97.5067 24.7638 96.7544 26.8453C96.3988 27.8095 95.8698 28.7006 95.1934 29.4743C94.5453 30.2204 93.7478 30.822 92.8524 31.2403C91.9368 31.6565 90.941 31.8668 89.9354 31.8563C88.9768 31.878 88.0288 31.6517 87.1834 31.1993C86.3764 30.7683 85.6857 30.1483 85.1704 29.3923L85.0474 31.4053H81.3094V31.4463ZM89.2374 28.2013C89.9367 28.2063 90.6223 28.0064 91.2094 27.6263C91.809 27.2258 92.292 26.6738 92.6094 26.0263C92.9342 25.303 93.1021 24.5191 93.1021 23.7263C93.1021 22.9334 92.9342 22.1496 92.6094 21.4263C92.2805 20.7865 91.7998 20.2372 91.2094 19.8263C90.6307 19.4281 89.9394 19.2265 89.2374 19.2513C88.538 19.2463 87.8525 19.4462 87.2654 19.8263C86.6567 20.2164 86.1712 20.7712 85.8654 21.4263C85.5406 22.1496 85.3727 22.9334 85.3727 23.7263C85.3727 24.5191 85.5406 25.303 85.8654 26.0263C86.194 26.6662 86.6748 27.2156 87.2654 27.6263C87.844 28.0245 88.5354 28.2261 89.2374 28.2013Z" fill="#35608B"/>
<path d="M98.9734 31.4493V16.0013H102.752L102.875 17.9733C103.331 17.2369 103.968 16.6291 104.724 16.2073C105.605 15.7491 106.588 15.5235 107.58 15.5522C108.572 15.5809 109.541 15.8629 110.393 16.3713C111.266 16.9235 111.953 17.7247 112.365 18.6713C112.849 19.7852 113.088 20.9901 113.065 22.2043V31.4884H108.957V22.7384C109.008 21.83 108.747 20.9316 108.218 20.1913C107.979 19.8917 107.671 19.6537 107.321 19.4972C106.971 19.3406 106.588 19.27 106.205 19.2913C105.63 19.2708 105.06 19.4132 104.562 19.7023C104.103 20.005 103.723 20.4134 103.453 20.8933C103.164 21.4211 103.022 22.0169 103.042 22.6183V31.4913H98.9734V31.4493Z" fill="#35608B"/>
<path d="M115.116 31.4463V9.59229H119.224V17.9313C119.768 17.1963 120.47 16.5928 121.278 16.1653C122.131 15.7317 123.074 15.5065 124.03 15.5083C124.997 15.4931 125.953 15.7041 126.823 16.1243C127.686 16.5401 128.454 17.127 129.082 17.8493C129.736 18.6013 130.251 19.4638 130.602 20.3963C131.328 22.4871 131.314 24.7638 130.561 26.8453C130.206 27.8096 129.677 28.7006 129 29.4743C128.352 30.2204 127.555 30.822 126.659 31.2403C125.744 31.6566 124.748 31.8668 123.742 31.8563C122.784 31.878 121.836 31.6517 120.99 31.1993C120.183 30.7682 119.493 30.1482 118.977 29.3923L118.854 31.4053H115.116V31.4463ZM123.044 28.2013C123.744 28.2063 124.429 28.0064 125.016 27.6263C125.616 27.2258 126.099 26.6738 126.416 26.0263C126.741 25.303 126.909 24.5191 126.909 23.7263C126.909 22.9334 126.741 22.1496 126.416 21.4263C126.088 20.7864 125.607 20.237 125.016 19.8263C124.438 19.4281 123.746 19.2265 123.044 19.2513C122.345 19.2463 121.659 19.4462 121.072 19.8263C120.464 20.2164 119.978 20.7712 119.672 21.4263C119.348 22.1496 119.18 22.9334 119.18 23.7263C119.18 24.5191 119.348 25.303 119.672 26.0263C120.001 26.6662 120.482 27.2156 121.072 27.6263C121.651 28.0245 122.342 28.2261 123.044 28.2013Z" fill="#35608B"/>
<path d="M37.8073 30.0504C37.6343 29.5445 37.4286 29.0505 37.1913 28.5714C36.8623 27.8714 36.5343 27.1334 36.2463 26.4354L36.2053 26.3944C33.3713 20.2324 30.2903 13.9884 27.1273 7.82738L27.0043 7.58138C26.6753 6.96537 26.3473 6.30838 26.0183 5.65038C25.5984 4.85198 25.1032 4.09555 24.5393 3.39138C23.8973 2.62005 23.0935 1.99942 22.1848 1.57349C21.2761 1.14756 20.2849 0.926758 19.2813 0.926758C18.2778 0.926758 17.2865 1.14756 16.3778 1.57349C15.4692 1.99942 14.6653 2.62005 14.0233 3.39138C13.4595 4.09555 12.9642 4.85199 12.5443 5.65038C12.2153 6.30738 11.8443 6.96537 11.5173 7.58138L11.3943 7.82738C8.23132 13.9894 5.15033 20.2334 2.31633 26.3944L2.27533 26.4764C1.94633 27.1764 1.61833 27.8764 1.33033 28.5764C1.125 29.0284 0.919657 29.5214 0.714324 30.0554C0.189446 31.4714 0.0201636 32.9946 0.221328 34.4914C0.446418 35.9975 1.05612 37.4201 1.99155 38.6218C2.92697 39.8235 4.15648 40.7636 5.56132 41.3514C6.62759 41.7973 7.77365 42.0208 8.92933 42.0084C9.28668 42.0031 9.64336 41.9757 9.99733 41.9264C11.4484 41.7474 12.8469 41.2708 14.1053 40.5264C16.029 39.3954 17.7506 37.9516 19.1993 36.2544C20.6665 37.9329 22.3849 39.374 24.2933 40.5264C25.5544 41.2649 26.9517 41.7411 28.4013 41.9264C28.7556 41.9726 29.1121 41.9999 29.4693 42.0084C31.5839 42.0181 33.6306 41.2623 35.2314 39.8806C36.8322 38.4989 37.8789 36.5847 38.1783 34.4914C38.4866 33.0063 38.3578 31.4637 37.8073 30.0504ZM19.2813 32.1864C17.3775 29.9587 15.9638 27.3553 15.1323 24.5454C14.9313 23.7256 14.8896 22.8749 15.0093 22.0394C15.0903 21.4209 15.3153 20.83 15.6663 20.3144C16.0816 19.7473 16.6263 19.2875 17.255 18.9732C17.8838 18.6589 18.5785 18.4992 19.2813 18.5074C19.9871 18.4808 20.6883 18.6324 21.3201 18.9482C21.9519 19.264 22.494 19.7339 22.8963 20.3144C23.2473 20.83 23.4723 21.4209 23.5533 22.0394C23.6729 22.8749 23.6312 23.7256 23.4303 24.5454C22.5985 27.3554 21.1855 29.9588 19.2813 32.1864ZM35.7123 34.0764C35.5648 35.1347 35.1418 36.1357 34.4858 36.9791C33.8298 37.8225 32.9637 38.4789 31.9743 38.8824C30.9725 39.2876 29.8835 39.4291 28.8113 39.2934C27.6995 39.1317 26.6261 38.7698 25.6433 38.2254C23.8705 37.1682 22.2875 35.8212 20.9603 34.2404C23.6303 30.9134 25.3143 27.8734 25.9303 25.1214C26.2065 23.9784 26.2621 22.7932 26.0943 21.6294C25.9421 20.6261 25.5628 19.6708 24.9853 18.8364C24.3148 17.9316 23.4417 17.1964 22.4358 16.6899C21.43 16.1834 20.3195 15.9195 19.1933 15.9195C18.0672 15.9195 16.9566 16.1834 15.9508 16.6899C14.945 17.1964 14.0718 17.9316 13.4013 18.8364C12.8239 19.6708 12.4446 20.6261 12.2923 21.6294C12.1245 22.7932 12.1802 23.9784 12.4563 25.1214C13.0723 27.8324 14.7563 30.9134 17.4263 34.2404C16.0991 35.8212 14.5162 37.1682 12.7433 38.2254C11.7754 38.7989 10.6978 39.1628 9.58033 39.2934C8.5082 39.4291 7.41916 39.2876 6.41733 38.8824C5.42471 38.4837 4.55567 37.8288 3.89896 36.9845C3.24224 36.1401 2.82137 35.1366 2.67933 34.0764C2.52124 33.0079 2.64889 31.9165 3.04932 30.9134C3.21332 30.5024 3.37833 30.0914 3.58333 29.5994C3.87133 28.8994 4.19933 28.2434 4.52833 27.5454L4.56933 27.4634C7.40333 21.3424 10.4433 15.0984 13.6063 8.97838L13.7293 8.73238C14.0583 8.11638 14.3863 7.45938 14.7153 6.84238C15.0256 6.19652 15.4116 5.58992 15.8653 5.03538C16.2582 4.54238 16.7584 4.14552 17.3279 3.87502C17.8973 3.60451 18.521 3.46749 19.1513 3.47438C19.7767 3.47317 20.3948 3.60858 20.9624 3.87112C21.5299 4.13367 22.0333 4.51702 22.4373 4.99438C22.891 5.54892 23.2771 6.15552 23.5873 6.80138C23.9163 7.41738 24.2443 8.07438 24.5733 8.69138L24.6963 8.93738C27.8593 15.0584 30.8963 21.3024 33.7333 27.4224L33.7743 27.4634C34.1033 28.1634 34.4313 28.8634 34.7193 29.5634C34.9243 30.0564 35.0893 30.4634 35.2533 30.8774C35.6966 31.8811 35.8554 32.9875 35.7123 34.0754V34.0764Z" fill="#35608B"/>
</g>
</svg>
