<svg width="110" height="31" viewBox="0 0 110 31" fill="none" xmlns="http://www.w3.org/2000/svg">
<g opacity="0.7">
<mask id="mask0_74_172" style="mask-type:luminance" maskUnits="userSpaceOnUse" x="0" y="0" width="110" height="31">
<path d="M109.277 0.77832H0.322266V30.612H109.277V0.77832Z" fill="white"/>
</mask>
<g mask="url(#mask0_74_172)">
<path d="M86.3173 18.7789C86.1787 17.0829 86.1951 15.3777 86.3664 13.6847C86.5409 12.5656 87.0095 11.5129 87.7243 10.6343C88.4392 9.75571 89.3746 9.08277 90.4348 8.68433C91.4951 8.28589 92.6422 8.17624 93.7587 8.3666C94.8752 8.55695 95.9212 9.04048 96.7895 9.76773C96.9069 9.90525 97.053 10.0154 97.2175 10.0904C97.382 10.1655 97.561 10.2036 97.7418 10.2021C97.9226 10.2006 98.1009 10.1595 98.2641 10.0817C98.4273 10.004 98.5716 9.89142 98.6867 9.75196C99.6013 8.94063 100.742 8.42823 101.956 8.28343C103.17 8.13862 104.399 8.36833 105.479 8.94176C106.582 9.42586 107.521 10.2188 108.183 11.2249C108.845 12.2309 109.201 13.4071 109.21 14.6114C109.322 17.4852 109.291 20.3686 109.188 23.2433C109.077 23.9121 108.706 24.5101 108.157 24.9075C107.882 25.1133 107.064 24.876 106.691 24.5834C106.378 24.2208 106.217 23.752 106.24 23.274C106.198 20.5482 106.246 17.8207 106.205 15.0949C106.165 12.3858 103.92 10.6935 101.554 11.5326C100.853 11.7822 100.25 12.2503 99.8352 12.8682C99.42 13.486 99.2142 14.2208 99.2481 14.9644C99.2332 17.6534 99.2481 20.3424 99.2438 23.0305C99.2438 24.2392 98.6464 25.0704 97.7696 25.1107C96.8578 25.1519 96.2219 24.3005 96.2184 23.0033C96.2114 20.3905 96.2228 17.7777 96.2114 15.1641C96.2621 14.6792 96.2106 14.1891 96.0604 13.7253C95.9101 13.2615 95.6644 12.8343 95.339 12.4712C95.0137 12.1081 94.6158 11.8173 94.1712 11.6173C93.7266 11.4173 93.245 11.3126 92.7575 11.31C92.27 11.3074 91.7873 11.407 91.3406 11.6023C90.8939 11.7975 90.493 12.0842 90.1638 12.4438C89.8346 12.8034 89.5844 13.228 89.4292 13.6902C89.2741 14.1523 89.2174 14.6419 89.263 15.1273C89.2498 17.7786 89.2008 20.4308 89.2884 23.0786C89.3492 23.5503 89.2229 24.0271 88.9366 24.4069C88.6503 24.7867 88.2267 25.0393 87.7564 25.1107C86.8928 25.172 86.2394 24.2698 86.2342 23.0918C86.228 21.6527 86.2342 20.2136 86.2342 18.7745H86.3217" fill="#34608A"/>
<path d="M20.0992 18.1708C20.1211 20.6951 22.9021 22.4005 24.7896 22.326C26.0536 22.1972 27.3032 21.9529 28.5227 21.5964C28.8772 21.4664 29.2215 21.31 29.5527 21.1287C29.7061 21.0514 29.8733 21.0053 30.0447 20.993C30.216 20.9807 30.388 21.0025 30.5509 21.0571C30.7138 21.1116 30.8642 21.1979 30.9936 21.3109C31.1229 21.4239 31.2286 21.5615 31.3045 21.7155C31.3984 21.85 31.463 22.0027 31.4942 22.1637C31.5253 22.3247 31.5223 22.4905 31.4853 22.6502C31.4483 22.81 31.3782 22.9602 31.2794 23.0912C31.1807 23.2221 31.0555 23.3309 30.9121 23.4104C29.622 24.3154 28.125 24.8812 26.5588 25.0559C24.9927 25.2305 23.4077 25.0083 21.95 24.4098C20.5337 23.8935 19.2994 22.974 18.3995 21.7647C17.4996 20.5553 16.9733 19.109 16.8856 17.6041C16.7445 16.4363 16.8523 15.2518 17.2018 14.1286C17.5513 13.0055 18.1346 11.969 18.9135 11.0874C19.6923 10.2059 20.6489 9.49916 21.7204 9.01381C22.7919 8.52847 23.954 8.27548 25.1304 8.27148C27.0217 8.27769 28.8509 8.94738 30.2991 10.1638C31.7473 11.3803 32.7228 13.0664 33.0554 14.9283C33.4207 17.005 32.5018 18.099 30.3769 18.1016C27.3507 18.1016 24.3245 18.1016 21.2983 18.1016C20.8972 18.1016 20.4969 18.1419 20.1027 18.1638M20.0703 15.2261H30.0555C29.8738 14.0363 29.2775 12.949 28.372 12.1562C27.4665 11.3634 26.31 10.916 25.1067 10.893C22.5666 10.9062 20.1842 12.9137 20.0633 15.2322" fill="#34608A"/>
<path d="M47.195 18.1058C47.2458 20.3262 49.4005 22.2094 51.8513 22.367C53.4101 22.4359 54.9554 22.052 56.3008 21.2617C56.4594 21.1371 56.6436 21.0493 56.8402 21.0044C57.0368 20.9596 57.2409 20.9589 57.4378 21.0023C57.6347 21.0458 57.8196 21.1324 57.979 21.2558C58.1385 21.3793 58.2686 21.5365 58.36 21.7163C58.4603 21.8812 58.5233 22.0662 58.5446 22.2581C58.5659 22.45 58.5449 22.6443 58.4831 22.8272C58.4214 23.0101 58.3203 23.1774 58.1871 23.3171C58.0538 23.4569 57.8916 23.5658 57.7119 23.6362C53.0609 26.4084 46.3375 25.2776 44.3256 19.4652C43.637 17.494 43.7059 15.3372 44.5188 13.414C45.3318 11.4908 46.8307 9.93845 48.7243 9.05876C50.52 8.20708 52.5675 8.05077 54.4717 8.61997C56.3758 9.18918 58.0016 10.4436 59.0353 12.141C59.6389 13.264 60.0062 14.4987 60.1144 15.769C60.2896 17.2142 59.3103 18.0944 57.8424 18.1014C54.6997 18.1163 51.5561 18.1067 48.4134 18.1067L47.195 18.1058ZM57.1557 15.2706C56.9712 14.0345 56.3427 12.9079 55.3876 12.1018C54.4325 11.2957 53.2164 10.8653 51.9669 10.8911C49.7491 11.0523 47.0978 12.8303 47.174 15.2706H57.1557Z" fill="#34608A"/>
<path d="M71.0262 18.1715C70.9457 20.123 72.9409 21.6856 74.3704 22.113C75.9831 22.5899 77.7161 22.443 79.2254 21.7013L80.3571 21.1758C80.5132 21.0826 80.687 21.0228 80.8675 21.0002C81.0479 20.9776 81.2311 20.9927 81.4054 21.0446C81.5797 21.0965 81.7413 21.184 81.8801 21.3015C82.0188 21.4191 82.1316 21.5642 82.2113 21.7276C82.3148 21.8793 82.3826 22.0525 82.4095 22.2342C82.4364 22.4158 82.4218 22.6012 82.3667 22.7764C82.3117 22.9515 82.2176 23.112 82.0916 23.2456C81.9657 23.3792 81.811 23.4825 81.6394 23.5477C80.6164 24.1076 79.5278 24.5384 78.3986 24.83C73.4279 25.9398 69.0476 23.3051 67.9212 18.6208C67.4762 16.7443 67.6936 14.7717 68.5366 13.0372C69.3796 11.3026 70.7963 9.9129 72.5468 9.10341C74.2759 8.25098 76.2564 8.05769 78.1177 8.5597C79.9791 9.06171 81.5938 10.2246 82.6598 11.8309C83.3626 13.0242 83.8042 14.353 83.9552 15.7295C84.1681 17.2597 83.2038 18.0944 81.6368 18.1041C78.4967 18.1163 75.3575 18.1041 72.2175 18.1119C71.8154 18.1119 71.4134 18.1505 71.0245 18.1715M70.9316 15.253H80.9492C80.9334 13.1264 78.699 11.0882 76.272 10.9034C75.0016 10.8411 73.753 11.251 72.7667 12.054C71.7803 12.857 71.1258 13.9964 70.929 15.253" fill="#34608A"/>
<path d="M9.17987 8.27504C11.1129 8.37624 12.9479 9.15741 14.3608 10.4805C15.2664 11.3337 15.3514 12.1088 14.6673 12.8454C14.0271 13.533 13.2755 13.5462 12.3742 12.75C11.6309 12.0595 10.7068 11.5942 9.70948 11.4083C8.71211 11.2224 7.68245 11.3235 6.74028 11.6998C5.7981 12.0761 4.98215 12.7122 4.38732 13.5341C3.7925 14.356 3.44325 15.3299 3.38021 16.3425C3.31717 17.3551 3.54293 18.3647 4.03123 19.254C4.51952 20.1434 5.25028 20.8758 6.1385 21.366C7.02672 21.8563 8.03589 22.0843 9.04862 22.0236C10.0613 21.9628 11.036 21.6157 11.8592 21.0228C12.1369 20.8266 12.3935 20.5997 12.6694 20.4009C12.8042 20.2798 12.9616 20.1865 13.1325 20.1263C13.3034 20.0662 13.4845 20.0402 13.6654 20.0501C13.8463 20.0599 14.0235 20.1053 14.1869 20.1837C14.3502 20.2621 14.4965 20.3719 14.6174 20.5069C14.7659 20.6268 14.8871 20.7772 14.9727 20.9478C15.0584 21.1185 15.1065 21.3055 15.114 21.4962C15.1215 21.687 15.0881 21.8772 15.016 22.054C14.9439 22.2308 14.8349 22.3902 14.6962 22.5214C13.6561 23.6894 12.273 24.4982 10.7451 24.832C9.48223 25.1386 8.1656 25.1491 6.898 24.8628C5.6304 24.5764 4.44614 24.001 3.43767 23.1813C2.42921 22.3617 1.62383 21.3201 1.08443 20.1378C0.545019 18.9555 0.286182 17.6645 0.328124 16.3656C0.455423 14.1284 1.45258 12.0296 3.10656 10.5177C4.76054 9.00575 6.9402 8.20145 9.17987 8.27504Z" fill="#34608A"/>
<path d="M35.3198 12.0753C35.3198 9.80585 35.3146 7.53554 35.3198 5.26523C35.3198 4.07665 35.982 3.25068 36.8702 3.28835C37.746 3.32251 38.3206 4.07665 38.3425 5.2337C38.3793 5.95182 38.3767 6.67143 38.3347 7.38927C38.2409 8.41669 38.7034 8.74077 39.6599 8.67245C40.3369 8.6234 41.0201 8.67858 41.7007 8.67245C42.602 8.65931 43.2248 9.092 43.2274 9.97752C43.23 10.863 42.6239 11.3089 41.7191 11.3036C40.887 11.2984 40.0549 11.3246 39.2237 11.308C38.5939 11.2957 38.3434 11.5865 38.3478 12.1997C38.3601 14.3938 38.3031 16.5896 38.3714 18.782C38.3816 19.6062 38.6973 20.3974 39.2573 21.0022C39.8173 21.6071 40.5819 21.9826 41.4029 22.0561C42.778 22.3109 43.3132 22.9013 43.0951 23.9235C42.9068 24.8072 42.0441 25.2171 40.8248 24.9999C39.2507 24.7941 37.8113 24.0048 36.7915 22.7883C35.7717 21.5717 35.2459 20.0166 35.3181 18.4307C35.3181 16.3123 35.3181 14.1938 35.3181 12.0753" fill="#34608A"/>
<path d="M62.3505 12.8655C62.3505 9.49327 62.3505 6.12109 62.3505 2.74892C62.3505 1.53493 62.876 0.814073 63.7519 0.783417C64.6576 0.746629 65.3583 1.56646 65.3583 2.7314C65.3647 9.55167 65.3633 16.3719 65.3539 23.1922C65.3539 24.3142 64.7005 25.0955 63.8273 25.1051C62.94 25.1148 62.3514 24.3729 62.3487 23.2053C62.3429 19.7602 62.3429 16.3121 62.3487 12.8611" fill="#34608A"/>
<path d="M8.41335 29.7928C6.67559 29.7928 4.9387 29.8025 3.20093 29.7885C1.98256 29.778 1.4255 29.3172 1.42725 28.3722C1.42725 27.5217 2.03424 27.0171 3.14312 27.0136C6.65602 27.002 10.1689 27.002 13.6818 27.0136C14.7329 27.0136 15.4336 27.6014 15.3618 28.4291C15.2742 29.467 14.5647 29.7937 13.6258 29.7928C11.8886 29.7928 10.1511 29.7928 8.41335 29.7928Z" fill="#34608A"/>
</g>
</g>
</svg>
