<svg width="131" height="40" viewBox="0 0 131 40" fill="none" xmlns="http://www.w3.org/2000/svg">
<g opacity="0.7">
<path d="M112.636 7.27915C113.689 6.43272 114.963 5.9085 116.307 5.76959C117.65 5.63067 119.006 5.88298 120.209 6.49615C121.629 7.07924 122.846 8.06811 123.708 9.33911C124.569 10.6101 125.037 12.1068 125.052 13.6421C125.194 16.5151 124.007 18.6991 121.443 20.5271C121.467 19.8621 121.443 19.6011 121.443 19.1981C121.396 17.3461 121.657 17.6071 119.758 17.5841C118.758 17.5841 117.764 17.3471 117.218 18.6521C116.91 19.4351 115.96 19.3401 115.2 19.2691C114.749 19.2221 114.8 18.8421 114.8 18.5571V12.7411C114.798 12.3431 114.951 11.9599 115.227 11.6731C115.488 11.4121 116.034 11.4361 116.034 10.9131C116.034 9.79715 116.058 8.70515 116.01 7.58915C115.986 7.16215 115.535 7.28015 115.25 7.25715C114.369 7.27915 113.491 7.27915 112.636 7.27915Z" fill="#35608B"/>
<path d="M120.138 20.8142V19.6482C120.138 19.3632 120.281 18.9362 119.877 18.8412C119.426 18.7462 118.832 18.5562 118.547 19.0312C117.574 20.6222 116.031 20.5742 114.464 20.5742C113.704 20.5742 113.538 20.2892 113.538 19.6012C113.562 17.3222 113.562 15.0192 113.538 12.7162C113.482 12.3257 113.537 11.9274 113.696 11.5665C113.855 11.2056 114.112 10.8965 114.438 10.6742C114.583 10.5929 114.699 10.4684 114.77 10.3182V8.51416H108.57V10.2472C108.645 10.4864 108.805 10.6894 109.021 10.8172C109.302 11.0075 109.522 11.2739 109.657 11.5851C109.791 11.8963 109.834 12.2393 109.781 12.5742C109.757 14.4262 109.757 16.2742 109.781 18.1532C109.845 18.5997 109.788 19.0551 109.617 19.4724C109.446 19.8897 109.167 20.2538 108.808 20.5272C108.708 20.6098 108.621 20.7057 108.547 20.8122V23.2342H120.109V20.8142H120.138Z" fill="#35608B"/>
<path d="M15.5379 19.3413C16.0756 19.3652 16.582 19.6008 16.9468 19.9966C17.3115 20.3924 17.5049 20.9164 17.4849 21.4543C17.4617 21.9733 17.2387 22.4632 16.8626 22.8216C16.4865 23.18 15.9864 23.3791 15.4669 23.3773C14.9282 23.3504 14.4213 23.1147 14.0535 22.7202C13.6857 22.3257 13.4861 21.8035 13.4969 21.2643C13.5403 20.7486 13.7727 20.2671 14.1494 19.9122C14.526 19.5573 15.0205 19.354 15.5379 19.3413Z" fill="#35608B"/>
<path d="M37.1643 25.6304C36.447 26.4766 35.6864 27.2851 34.8853 28.0524C34.6679 28.2243 34.4021 28.3235 34.1252 28.3363C33.8484 28.349 33.5746 28.2746 33.3423 28.1234C32.8913 27.8144 33.4613 27.3634 33.6273 27.0314C34.5763 25.2744 34.6473 25.2504 37.1643 25.6304Z" fill="#35608B"/>
<path d="M115.413 0.228364C112.483 0.244778 109.623 1.12915 107.195 2.76978C104.767 4.41042 102.88 6.73374 101.772 9.44633C100.663 12.1589 100.384 15.1391 100.968 18.0106C101.552 20.882 102.975 23.5159 105.055 25.5796C107.135 27.6433 109.78 29.0443 112.656 29.6056C115.532 30.1669 118.51 29.8633 121.214 28.7333C123.918 27.6032 126.226 25.6973 127.847 23.2563C129.468 20.8153 130.329 17.9486 130.322 15.0184C130.327 13.0647 129.944 11.1294 129.195 9.32498C128.446 7.52053 127.346 5.88281 125.959 4.50688C124.572 3.13095 122.926 2.04421 121.115 1.30974C119.305 0.575268 117.367 0.207699 115.413 0.228364ZM115.318 26.8184C112.992 26.7882 110.727 26.0703 108.808 24.7552C106.889 23.4401 105.402 21.5866 104.534 19.428C103.666 17.2695 103.457 14.9025 103.932 12.625C104.406 10.3476 105.545 8.26161 107.203 6.62976C108.861 4.99791 110.965 3.89316 113.249 3.45466C115.534 3.01615 117.897 3.26349 120.042 4.16552C122.186 5.06755 124.016 6.58394 125.3 8.52373C126.585 10.4635 127.266 12.74 127.259 15.0664C127.254 16.6242 126.941 18.1657 126.337 19.6017C125.732 21.0376 124.85 22.3396 123.739 23.4324C122.629 24.5251 121.313 25.387 119.868 25.9682C118.422 26.5494 116.876 26.8383 115.318 26.8184Z" fill="#35608B"/>
<path d="M10.623 20.0991C9.95802 20.1231 9.29402 20.1231 8.60502 20.1231H8.43902C7.77402 20.1231 7.11002 20.1231 6.44502 20.0991C5.89101 20.122 5.33615 20.114 4.78302 20.0751H4.21302V17.1551H10.623V14.3771H4.21302V11.5771H11.406V10.2941C11.406 10.1041 11.406 9.86711 11.43 9.60611C11.4356 9.48692 11.4275 9.36748 11.406 9.25011V8.53711H0.723022V23.1851H11.406V20.1221H10.86C10.836 20.0991 10.765 20.0991 10.623 20.0991Z" fill="#35608B"/>
<path d="M28.5005 20.0996C28.3741 20.0877 28.2468 20.0877 28.1205 20.0996H23.9895C23.9655 20.0996 23.9415 20.0756 23.9185 20.0756H23.3725V19.3646C23.3522 19.2323 23.3441 19.0984 23.3485 18.9646C23.3485 18.6086 23.3725 18.2766 23.3725 17.9196V17.5876C23.3965 15.4746 23.3725 13.3616 23.3725 11.2486C23.3725 10.6076 23.3725 10.1086 23.3485 9.72965V8.51465H19.6215V23.1866H29.1655V20.0996H28.5005Z" fill="#35608B"/>
<path d="M41.7932 19.6244H38.7072C38.6858 19.6862 38.67 19.7498 38.6602 19.8144C37.9722 21.3334 36.6422 20.9774 35.4602 20.9064C35.0647 20.9341 34.6711 20.8304 34.3405 20.6114C34.01 20.3924 33.761 20.0704 33.6322 19.6954C33.6322 19.6714 33.6082 19.6244 33.6082 19.6004C33.5337 19.3611 33.486 19.1143 33.4662 18.8644V18.7714C33.4182 18.3444 33.3952 17.9644 33.3952 17.9644H33.9652C34.0745 17.9429 34.186 17.9348 34.2972 17.9404C35.4372 17.9874 36.5972 17.9404 37.7392 17.9404H39.9942C42.1542 17.9404 42.1542 17.9404 41.8942 15.7804C41.5622 12.9804 40.6122 11.9104 37.9772 11.5544C36.5251 11.3447 35.0478 11.385 33.6092 11.6734C32.7766 11.7988 32.0097 12.1985 31.4301 12.8092C30.8504 13.4198 30.4911 14.2065 30.4092 15.0444C30.1323 16.6476 30.1404 18.2871 30.4332 19.8874C30.4943 20.5861 30.7651 21.2501 31.2099 21.7924C31.6547 22.3346 32.2529 22.7299 32.9262 22.9264C35.1474 23.5438 37.495 23.5438 39.7162 22.9264C40.3011 22.7864 40.8269 22.4656 41.219 22.0097C41.6111 21.5537 41.8494 20.9857 41.9002 20.3864C41.9562 20.1577 41.9394 19.9172 41.8522 19.6984C41.8172 19.6714 41.8172 19.6484 41.7932 19.6244ZM34.2932 14.1644C35.4716 13.6777 36.7948 13.6777 37.9732 14.1644C38.5192 14.3784 38.6852 15.3994 38.6612 16.0644H33.4862C33.5082 15.3714 33.7472 14.3784 34.2912 14.1644H34.2932Z" fill="#35608B"/>
<path d="M75.4583 19.6244H72.3723C72.3505 19.6862 72.3344 19.7498 72.3243 19.8144C71.6363 21.3334 70.3063 20.9774 69.1243 20.9064C68.7287 20.9341 68.3352 20.8304 68.0046 20.6114C67.6741 20.3924 67.425 20.0704 67.2963 19.6954C67.2963 19.6714 67.2723 19.6244 67.2723 19.6004C67.1977 19.3611 67.1501 19.1143 67.1303 18.8644V18.7714C67.0833 18.3444 67.0593 17.9644 67.0593 17.9644H67.6293C67.7385 17.9429 67.85 17.9348 67.9613 17.9404C69.1013 17.9874 70.2613 17.9404 71.4033 17.9404H73.6583C75.8183 17.9404 75.8183 17.9404 75.5583 15.7804C75.2263 12.9804 74.2763 11.9104 71.6413 11.5544C70.1891 11.3447 68.7119 11.385 67.2733 11.6734C66.4407 11.7988 65.6738 12.1985 65.0941 12.8092C64.5145 13.4198 64.1552 14.2065 64.0733 15.0444C63.7964 16.6476 63.8045 18.2871 64.0973 19.8874C64.1584 20.5861 64.4291 21.2501 64.874 21.7924C65.3188 22.3346 65.917 22.7299 66.5903 22.9264C68.8115 23.5438 71.159 23.5438 73.3803 22.9264C73.9651 22.7864 74.491 22.4656 74.8831 22.0097C75.2751 21.5537 75.5135 20.9857 75.5643 20.3864C75.6206 20.1578 75.6042 19.9173 75.5173 19.6984C75.4583 19.6714 75.4583 19.6484 75.4583 19.6244ZM67.9323 14.1644C69.1107 13.6777 70.4339 13.6777 71.6123 14.1644C72.1583 14.3784 72.3243 15.3994 72.3003 16.0644H67.1253C67.1493 15.3714 67.3863 14.3784 67.9323 14.1644Z" fill="#35608B"/>
<path d="M61.4268 8.51465H58.1508V23.3286H61.4268V8.51465Z" fill="#35608B"/>
<path d="M52.4779 19.0544C52.4579 19.2252 52.4179 19.393 52.3589 19.5544C52.3349 19.6014 52.3349 19.6494 52.3109 19.6964C52.2919 19.7243 52.2834 19.7579 52.2869 19.7914C51.9069 20.6914 51.0759 20.9074 49.3869 20.7644C48.9472 20.7703 48.5215 20.6095 48.1956 20.3144C47.8696 20.0192 47.6675 19.6116 47.6299 19.1734C47.44 18.0021 47.44 16.8078 47.6299 15.6364C47.6619 15.2005 47.8591 14.7931 48.1811 14.4975C48.5031 14.2019 48.9258 14.0402 49.3629 14.0454C51.2389 13.8794 51.9739 14.1164 52.3539 15.2084C52.3539 15.2324 52.3779 15.2794 52.3779 15.3034C52.4249 15.4694 52.4489 15.6354 52.4969 15.8494H55.6539C55.6941 15.3883 55.6621 14.9237 55.5589 14.4724C55.4622 13.7968 55.152 13.1697 54.6736 12.6829C54.1952 12.1961 53.5737 11.8749 52.8999 11.7664C51.9781 11.5295 51.0218 11.4571 50.0749 11.5524C49.4421 11.5168 48.8077 11.5168 48.1749 11.5524C45.7059 11.8614 44.6379 12.9054 44.2339 15.3744C43.9764 16.9346 44.0168 18.5293 44.3529 20.0744C44.4718 20.8456 44.8363 21.5578 45.3923 22.1053C45.9483 22.6528 46.666 23.0063 47.4389 23.1134C49.2293 23.4579 51.0711 23.4338 52.8519 23.0424C53.3812 22.9611 53.8819 22.7492 54.3087 22.4258C54.7356 22.1025 55.0752 21.6779 55.2969 21.1904C55.4378 20.8826 55.5568 20.5651 55.6529 20.2404C55.7765 19.8577 55.8247 19.4546 55.7949 19.0534L52.4779 19.0544Z" fill="#35608B"/>
<path d="M84.741 11.5281C84.5147 11.4371 84.2652 11.4206 84.029 11.4811C82.8702 11.6989 81.8267 12.3217 81.085 13.2381V11.4571H77.809V23.1811H81.085V18.0101C81.085 17.6781 81.109 17.3451 81.132 17.0371C81.1216 16.7129 81.1767 16.39 81.2938 16.0875C81.411 15.785 81.5878 15.5093 81.8139 15.2766C82.0399 15.044 82.3104 14.8592 82.6094 14.7334C82.9084 14.6075 83.2296 14.5432 83.554 14.5441C83.9637 14.5992 84.3791 14.4974 84.7169 14.2591V11.5291L84.741 11.5281Z" fill="#35608B"/>
<path d="M94.0952 19.0544C94.0752 19.2252 94.0352 19.393 93.9761 19.5544C93.9521 19.6014 93.9522 19.6494 93.9282 19.6964C93.9092 19.7243 93.9007 19.7579 93.9041 19.7914C93.5241 20.6914 92.6932 20.9074 91.0041 20.7644C90.5644 20.7703 90.1388 20.6095 89.8128 20.3144C89.4869 20.0192 89.2848 19.6116 89.2472 19.1734C89.0572 18.0021 89.0572 16.8078 89.2472 15.6364C89.2792 15.2005 89.4763 14.7931 89.7983 14.4975C90.1204 14.2019 90.543 14.0402 90.9801 14.0454C92.8551 13.8794 93.5912 14.1164 93.9712 15.2084C93.9712 15.2324 93.9951 15.2794 93.9951 15.3034C94.0431 15.4694 94.0661 15.6354 94.1141 15.8494H97.2722C97.3108 15.388 97.2771 14.9234 97.1721 14.4724C97.0755 13.7968 96.7653 13.1697 96.2869 12.6829C95.8085 12.1961 95.187 11.8749 94.5132 11.7664C93.5914 11.5295 92.6351 11.4571 91.6881 11.5524C91.0553 11.5168 90.421 11.5168 89.7881 11.5524C87.3191 11.8614 86.2511 12.9054 85.8471 15.3744C85.5897 16.9346 85.6301 18.5293 85.9662 20.0744C86.0851 20.8456 86.4496 21.5578 87.0056 22.1053C87.5615 22.6528 88.2793 23.0063 89.0522 23.1134C90.8426 23.4579 92.6844 23.4338 94.4651 23.0424C94.9944 22.9611 95.4951 22.7492 95.922 22.4258C96.3489 22.1025 96.6885 21.6779 96.9102 21.1904C97.051 20.8825 97.17 20.5651 97.2661 20.2404C97.3897 19.8576 97.4379 19.4546 97.4081 19.0534L94.0952 19.0544Z" fill="#35608B"/>
<path d="M38.3041 34.438H36.1912C36.1672 34.485 36.1672 34.533 36.1442 34.557C35.6692 35.483 34.7442 35.269 33.9602 35.222C33.6997 35.2469 33.4381 35.1893 33.2123 35.0572C32.9865 34.9251 32.808 34.7252 32.7022 34.486C32.7022 34.462 32.6782 34.439 32.6782 34.415C32.6328 34.2679 32.601 34.117 32.5832 33.964V33.893C32.5542 33.7279 32.5384 33.5607 32.5362 33.393H32.9162C32.9872 33.393 33.0582 33.369 33.1532 33.369C33.9362 33.393 34.7201 33.369 35.5031 33.369H37.0461C38.5181 33.369 38.5181 33.369 38.3521 32.04C38.1151 30.331 37.4741 29.666 35.6691 29.452C34.6745 29.3214 33.6655 29.3453 32.6782 29.523C32.1351 29.579 31.6254 29.8111 31.2267 30.184C30.828 30.5568 30.5623 31.05 30.4701 31.588C30.2761 32.5687 30.2843 33.5786 30.4941 34.556C30.5457 35.0061 30.739 35.4281 31.0463 35.7611C31.3535 36.094 31.7586 36.3206 32.2031 36.408C33.7309 36.7878 35.3284 36.7878 36.8561 36.408C37.2384 36.3452 37.5904 36.1614 37.8604 35.8837C38.1304 35.6059 38.3041 35.2489 38.3561 34.865C38.3964 34.724 38.3879 34.5736 38.3322 34.438C38.3042 34.462 38.3041 34.462 38.3041 34.438ZM33.1522 31.091C33.9646 30.7943 34.8557 30.7943 35.6682 31.091C36.0242 31.233 36.1431 31.851 36.1431 32.254H32.6061C32.6061 31.827 32.7722 31.233 33.1522 31.091Z" fill="#35608B"/>
<path d="M57.5346 34.438H55.4215C55.3975 34.485 55.3975 34.533 55.3745 34.557C54.8995 35.483 53.9746 35.269 53.1906 35.222C52.9301 35.2469 52.6685 35.1893 52.4427 35.0572C52.2169 34.9251 52.0384 34.7252 51.9326 34.486C51.9326 34.462 51.9086 34.439 51.9086 34.415C51.8632 34.2679 51.8314 34.1169 51.8136 33.964V33.893C51.7846 33.7279 51.7689 33.5607 51.7666 33.393H52.1466C52.2176 33.393 52.2886 33.369 52.3836 33.369C53.1666 33.393 53.9506 33.369 54.7336 33.369H56.2766C57.7486 33.369 57.7486 33.369 57.5826 32.04C57.3456 30.331 56.7046 29.666 54.8996 29.452C53.9049 29.3214 52.8959 29.3453 51.9086 29.523C51.3655 29.579 50.8558 29.8111 50.4571 30.184C50.0584 30.5568 49.7927 31.05 49.7006 31.588C49.5066 32.5687 49.5148 33.5786 49.7246 34.556C49.7761 35.0061 49.9695 35.4281 50.2767 35.7611C50.5839 36.094 50.9891 36.3206 51.4336 36.408C52.9613 36.7878 54.5588 36.7878 56.0866 36.408C56.4688 36.3452 56.8208 36.1614 57.0908 35.8837C57.3608 35.6059 57.5345 35.2489 57.5866 34.865C57.6268 34.724 57.6183 34.5736 57.5626 34.438C57.5586 34.462 57.5346 34.462 57.5346 34.438ZM52.3826 31.091C53.195 30.7943 54.0861 30.7943 54.8986 31.091C55.2546 31.233 55.3736 31.851 55.3736 32.254H51.8366C51.8366 31.827 52.0026 31.233 52.3826 31.091Z" fill="#35608B"/>
<path d="M87.3286 34.438H85.2156C85.1916 34.485 85.1916 34.533 85.1686 34.557C84.6936 35.483 83.7686 35.269 82.9846 35.222C82.7243 35.2468 82.4627 35.189 82.2369 35.057C82.0112 34.9249 81.8326 34.7251 81.7266 34.486C81.7266 34.462 81.7026 34.439 81.7026 34.415C81.6556 34.2681 81.6221 34.1171 81.6026 33.964V33.893C81.5737 33.7279 81.558 33.5607 81.5557 33.393H81.9356C82.0066 33.393 82.0776 33.369 82.1726 33.369C82.9566 33.393 83.7396 33.369 84.5226 33.369H86.0656C87.5376 33.369 87.5376 33.369 87.3716 32.04C87.1346 30.331 86.4936 29.666 84.6886 29.452C83.6939 29.3214 82.685 29.3453 81.6976 29.523C81.1546 29.579 80.6448 29.8111 80.2461 30.184C79.8474 30.5568 79.5818 31.05 79.4896 31.588C79.2957 32.5687 79.3038 33.5786 79.5136 34.556C79.5652 35.0061 79.7585 35.4281 80.0658 35.7611C80.373 36.094 80.7781 36.3206 81.2226 36.408C82.7504 36.7878 84.3479 36.7878 85.8756 36.408C86.2579 36.3452 86.6098 36.1614 86.8798 35.8837C87.1498 35.6059 87.3236 35.2489 87.3756 34.865C87.4159 34.724 87.4074 34.5736 87.3516 34.438C87.3526 34.462 87.3286 34.462 87.3286 34.438ZM82.1767 31.091C82.9894 30.7942 83.8809 30.7942 84.6937 31.091C85.0497 31.233 85.1686 31.851 85.1686 32.254H81.6316C81.6306 31.827 81.7967 31.233 82.1767 31.091Z" fill="#35608B"/>
<path d="M63.9431 29.7145C63.7806 29.6679 63.6094 29.6597 63.4431 29.6905C62.6614 29.812 61.9382 30.1778 61.3771 30.7355V29.6675H59.0531V36.7425H61.3531V33.6085C61.3531 33.4185 61.3771 33.2085 61.3771 33.0155C61.3879 32.8038 61.4411 32.5964 61.5334 32.4056C61.6258 32.2148 61.7555 32.0444 61.9148 31.9046C62.0741 31.7647 62.2599 31.6582 62.4611 31.5914C62.6622 31.5246 62.8748 31.4988 63.0861 31.5155C63.3734 31.5441 63.6628 31.4863 63.9171 31.3495V29.7115L63.9431 29.7145Z" fill="#35608B"/>
<path d="M48.1088 31.8271C48.1315 31.3646 47.999 30.9077 47.7323 30.5292C47.4656 30.1507 47.08 29.8722 46.6368 29.738C45.1648 29.338 43.4788 29.1441 42.1498 30.2841V29.667H39.9418V36.694H42.1498V32.919C42.2208 31.827 42.8618 31.4 44.2388 31.447C45.5208 31.471 45.9248 31.847 45.9478 33.038V36.694H48.1558C48.1558 36.694 48.1798 33.9641 48.1558 33.0621C48.1558 32.7531 48.1088 31.8271 48.1088 31.8271Z" fill="#35608B"/>
<path d="M77.5704 26.4385H75.2914V28.4565H77.5704V26.4385Z" fill="#35608B"/>
<path d="M77.5704 29.5483H75.2914V36.6943H77.5704V29.5483Z" fill="#35608B"/>
<path d="M73.6012 30.8293V29.4053H71.4412V30.3313C71.1798 29.9883 70.8283 29.7246 70.426 29.5696C70.0236 29.4146 69.5861 29.3743 69.1622 29.4533C65.5062 29.4053 64.9122 30.0943 65.1972 33.7743C65.1787 34.0834 65.2251 34.3931 65.3334 34.6832C65.4418 34.9734 65.6097 35.2377 65.8263 35.459C66.043 35.6804 66.3036 35.8539 66.5913 35.9685C66.8791 36.0831 67.1876 36.1361 67.4972 36.1243C68.8502 36.1953 70.2272 36.4333 71.5572 35.4363C71.4862 36.4573 71.5332 37.4063 70.4412 37.5253C69.4682 37.6203 67.9011 37.6673 67.4741 37.2163C67.393 37.1423 67.3423 37.0406 67.3321 36.9313H65.3611C65.3611 36.9313 65.3371 37.5963 65.3611 37.8313V37.9263C65.4091 38.4483 66.2392 39.0183 66.9752 39.1373H67.0941C68.4001 39.1373 69.7052 39.2083 71.0112 39.1133C71.3715 39.1452 71.7344 39.0953 72.0728 38.9673C72.4111 38.8392 72.7161 38.6364 72.965 38.3738C73.2139 38.1113 73.4002 37.7959 73.51 37.4512C73.6198 37.1065 73.6503 36.7414 73.5991 36.3833C73.6278 34.5566 73.6285 32.7053 73.6012 30.8293ZM69.6842 34.3193H69.3281C67.6661 34.3193 67.2862 33.9873 67.3342 32.6333C67.3188 32.4557 67.3416 32.277 67.4011 32.109C67.4607 31.9411 67.5555 31.7878 67.6793 31.6596C67.803 31.5314 67.9528 31.4312 68.1186 31.3658C68.2843 31.3003 68.4622 31.2712 68.6402 31.2803C68.9958 31.2565 69.3525 31.2565 69.7082 31.2803C71.1562 31.3043 71.4892 31.5893 71.4892 32.8233C71.4932 34.0343 71.1611 34.2963 69.6891 34.3193H69.6842Z" fill="#35608B"/>
<path d="M90.649 34.5103H88.449C88.449 34.5103 88.33 36.6943 90.325 36.6943C90.373 36.6943 90.425 36.7183 90.467 36.7183C92.1409 36.9085 93.8322 36.8846 95.5 36.6473C95.9174 36.6162 96.3071 36.4268 96.5895 36.1179C96.8719 35.8089 97.0255 35.4038 97.019 34.9853C97.09 34.1543 97.209 33.2043 96.519 32.6353C95.712 31.9943 93.741 32.1603 92.341 32.1133C91.866 32.0893 91.273 32.3033 90.988 31.6863C90.9904 31.6013 91.0132 31.5182 91.0545 31.4439C91.0957 31.3696 91.1542 31.3063 91.225 31.2593C92.0453 30.8967 92.9578 30.7972 93.837 30.9743C93.9719 30.9961 94.0983 31.0541 94.2027 31.1422C94.3072 31.2302 94.3857 31.345 94.43 31.4743H96.749V31.3083C96.7422 31.0497 96.6823 30.7953 96.573 30.5608C96.4638 30.3264 96.3074 30.117 96.1137 29.9455C95.9201 29.7741 95.6932 29.6443 95.4472 29.5643C95.2013 29.4842 94.9415 29.4556 94.684 29.4803C93.497 29.4333 92.31 29.4093 91.147 29.4333C90.197 29.4333 89.2 29.4573 88.773 30.5733C88.5197 31.1238 88.4712 31.7467 88.6362 32.3298C88.8012 32.9129 89.1688 33.418 89.673 33.7543C90.884 34.3473 92.356 33.9443 93.685 33.9443C94.112 33.9443 94.635 33.8963 94.685 34.5143C94.709 35.2023 94.139 35.1793 93.664 35.1793C92.714 35.2033 91.551 35.5353 90.744 34.6333C90.724 34.6283 90.649 34.5103 90.649 34.5103Z" fill="#35608B"/>
</g>
</svg>
