<svg width="123" height="27" viewBox="0 0 123 27" fill="none" xmlns="http://www.w3.org/2000/svg">
<g opacity="0.7">
<path d="M27.4741 10.1351L20.0911 1.03514C19.8298 0.713482 19.4885 0.466247 19.1015 0.318272C18.7144 0.170298 18.2952 0.126795 17.8861 0.192136L6.31305 2.03614C5.90369 2.10156 5.51878 2.27361 5.19701 2.53499C4.87524 2.79637 4.62797 3.13787 4.48005 3.52514L0.292054 14.4671C0.144083 14.8543 0.100562 15.2736 0.165856 15.6829C0.231151 16.0923 0.402965 16.4772 0.664054 16.7991L8.04805 25.8991C8.30918 26.221 8.65042 26.4684 9.03748 26.6166C9.42454 26.7647 9.84377 26.8084 10.2531 26.7431L21.8241 24.8991C22.2332 24.8333 22.6177 24.6609 22.9391 24.3994C23.2605 24.1379 23.5075 23.7963 23.6551 23.4091L27.8451 12.4691C27.9929 12.0818 28.0364 11.6623 27.9711 11.2529C27.9058 10.8434 27.734 10.4583 27.4731 10.1361L27.4741 10.1351Z" fill="#35608B"/>
<path d="M17.2641 8.0103L14.6441 12.7003L12.0701 7.1333L8.85507 7.9903L4.87207 18.3693H8.42407L10.8191 12.2473L13.1801 18.0783H14.9981L18.4911 11.8273V19.8273L21.8061 18.7003V8.8183L17.2641 8.0103Z" fill="white"/>
<path d="M41.786 8.88226L39.119 13.6543L36.495 7.98926L33.221 8.86026L29.166 19.4333H32.785L35.224 13.2003L37.624 19.1393H39.474L43.032 12.7743V20.8233L46.412 19.6793V9.70326L41.786 8.88226ZM71.136 10.5933C70.5286 10.5762 69.9239 10.6804 69.3573 10.8999C68.7907 11.1193 68.2735 11.4495 67.836 11.8713C67.3977 12.2944 67.0533 12.805 66.8252 13.3699C66.5971 13.9348 66.4904 14.5414 66.512 15.1503C66.4918 15.7565 66.5991 16.3601 66.827 16.9222C67.0549 17.4843 67.3983 17.9923 67.835 18.4133C68.736 19.2441 69.9259 19.6901 71.151 19.6563C72.3717 19.6925 73.5575 19.2458 74.451 18.4133C74.8929 17.9954 75.2409 17.4884 75.4719 16.9259C75.7029 16.3633 75.8117 15.7581 75.791 15.1503C75.8133 14.5399 75.7054 13.9318 75.4743 13.3664C75.2433 12.801 74.8944 12.2913 74.451 11.8713C74.0114 11.4482 73.4917 11.1172 72.9225 10.8977C72.3532 10.6783 71.7458 10.5747 71.136 10.5933ZM72.912 15.1493C72.9397 15.3969 72.9149 15.6476 72.8391 15.885C72.7633 16.1224 72.6383 16.3411 72.4721 16.5269C72.306 16.7126 72.1026 16.8613 71.8751 16.963C71.6476 17.0647 71.4012 17.1173 71.152 17.1173C70.9028 17.1173 70.6564 17.0647 70.4289 16.963C70.2015 16.8613 69.998 16.7126 69.8319 16.5269C69.6658 16.3411 69.5407 16.1224 69.4649 15.885C69.3891 15.6476 69.3643 15.3969 69.392 15.1493C69.3575 14.8978 69.3773 14.642 69.4499 14.3988C69.5226 14.1557 69.6465 13.9309 69.8133 13.7397C69.9801 13.5484 70.1859 13.3951 70.4169 13.2901C70.6479 13.185 70.8987 13.1307 71.1525 13.1307C71.4063 13.1307 71.6571 13.185 71.8881 13.2901C72.1191 13.3951 72.3249 13.5484 72.4917 13.7397C72.6585 13.9309 72.7824 14.1557 72.8551 14.3988C72.9278 14.642 72.9465 14.8978 72.912 15.1493ZM62.475 10.6013C62.5484 10.5966 62.622 10.5943 62.696 10.5943C64.685 10.5943 65.539 11.6783 65.539 13.5793V19.4453H62.323V14.2453C62.323 13.7133 62.123 13.3933 61.723 13.3933C61.1609 13.4002 60.6113 13.5599 60.133 13.8553V19.4433H56.953V10.7753H59.58L59.758 11.4253C60.5937 10.9546 61.5226 10.6737 62.479 10.6023L62.475 10.6013ZM48.175 13.4723V11.0333L48.591 10.9583C51.071 10.5093 55.765 9.65826 55.766 14.1783V19.4433H53.329L53.146 19.0213C52.334 19.5023 51.396 19.7278 50.454 19.6683C50.0712 19.7021 49.6856 19.6573 49.3207 19.5368C48.9558 19.4163 48.6194 19.2226 48.332 18.9674C48.0447 18.7123 47.8125 18.4011 47.6496 18.0531C47.4868 17.705 47.3967 17.3274 47.385 16.9433C47.385 14.7513 49.32 14.2253 51.494 14.2253H53.018C53.018 13.3383 52.477 13.0043 51.341 13.0193C50.269 13.0202 49.2025 13.1724 48.173 13.4713L48.175 13.4723ZM51.21 17.5983C52.41 17.5983 53.039 17.1533 53.039 16.1543V16.0543L51.596 16.0413C50.477 16.0413 49.941 16.2083 49.941 16.7883C49.941 17.3683 50.413 17.5883 51.21 17.5883V17.5983ZM114.904 11.8713C115.809 11.0488 116.988 10.593 118.211 10.593C119.434 10.593 120.613 11.0488 121.518 11.8713C121.961 12.2913 122.31 12.801 122.541 13.3664C122.772 13.9318 122.88 14.5399 122.858 15.1503C122.879 15.7581 122.77 16.3634 122.539 16.926C122.308 17.4886 121.96 17.9955 121.518 18.4133C120.625 19.2458 119.439 19.6925 118.218 19.6563C116.993 19.6899 115.804 19.2438 114.903 18.4133C114.466 17.9923 114.123 17.4843 113.895 16.9222C113.667 16.3601 113.56 15.7565 113.58 15.1503C113.558 14.5418 113.664 13.9355 113.892 13.3706C114.119 12.8058 114.463 12.295 114.9 11.8713H114.904ZM118.22 17.1173C118.468 17.1118 118.711 17.0556 118.936 16.952C119.161 16.8485 119.362 16.6998 119.527 16.5153C119.692 16.3307 119.818 16.1143 119.895 15.8793C119.973 15.6443 120.002 15.3958 119.98 15.1493C120.014 14.8982 119.994 14.6428 119.921 14.4002C119.848 14.1576 119.724 13.9334 119.557 13.7427C119.391 13.552 119.185 13.3991 118.954 13.2943C118.724 13.1896 118.473 13.1354 118.22 13.1354C117.967 13.1354 117.716 13.1896 117.486 13.2943C117.255 13.3991 117.049 13.552 116.883 13.7427C116.716 13.9334 116.592 14.1576 116.519 14.4002C116.446 14.6428 116.426 14.8982 116.46 15.1493C116.437 15.396 116.465 15.6449 116.542 15.8804C116.62 16.1158 116.745 16.3327 116.91 16.5175C117.076 16.7022 117.277 16.8509 117.503 16.9541C117.728 17.0573 117.972 17.1128 118.22 17.1173ZM109.543 10.6013C109.615 10.6013 109.689 10.5943 109.763 10.5943C111.754 10.5943 112.606 11.6783 112.606 13.5783V19.4453H109.389V14.2453C109.389 13.7133 109.189 13.3933 108.789 13.3933C108.227 13.4004 107.678 13.5601 107.2 13.8553V19.4433H104.012V10.7753H106.64L106.817 11.4253C107.653 10.9546 108.582 10.6737 109.538 10.6023L109.543 10.6013ZM88.851 8.88226L86.183 13.6543L83.56 7.98926L80.286 8.86026L76.231 19.4333H79.848L82.288 13.2003L84.693 19.1333H86.543L90.1 12.7673V20.8173L93.477 19.6753V9.70326L88.851 8.88226ZM95.237 13.4723V11.0333L95.653 10.9583C98.133 10.5093 102.827 9.65826 102.827 14.1783V19.4433H100.394L100.211 19.0213C99.399 19.5023 98.461 19.7278 97.519 19.6683C97.1363 19.7019 96.7507 19.6571 96.3858 19.5365C96.021 19.416 95.6846 19.2222 95.3973 18.9671C95.11 18.712 94.8778 18.4009 94.7149 18.0529C94.552 17.7049 94.4619 17.3273 94.45 16.9433C94.45 14.7513 96.385 14.2253 98.559 14.2253H100.083C100.083 13.3383 99.542 13.0043 98.406 13.0193C97.334 13.0202 96.2675 13.1724 95.238 13.4713L95.237 13.4723ZM98.27 17.5973C99.47 17.5973 100.099 17.1533 100.099 16.1543V16.0543L98.656 16.0413C97.537 16.0413 97.001 16.2083 97.001 16.7883C97.001 17.3683 97.473 17.5973 98.27 17.5973Z" fill="#35608B"/>
</g>
</svg>
